# xmcd
#
# Track frame offsets:
#	150
#	11992
#	24667
#	38090
#	50240
#	61417
#	73342
#	84445
#	103742
#	116725
#	128790
#	141995
#	155802
#	170962
#	185120
#	198480
#
# Disc length: 2832 seconds
#
# Revision: 2
# Processed by: cddbd v1.4PL0 Copyright (c) Steve Scherf et al.
# Submitted via: audiograbber 1.82.02
#
DISCID=000b0e10
DTITLE=Tammy Wynette - Greatest Hits
DYEAR=1900
DGENRE=
TTITLE0=I Dont Wanna Play House
TTITLE1=Take Me To Your World
TTITLE2=Divorce
TTITLE3=Standby Your Man
TTITLE4=The Ways To Love A Man
TTITLE5=When He Loves Me(He Loves Me All The Way)
TTITLE6=Run Woman Run
TTITLE7=Bedtime Story
TTITLE8=My Man
TTITLE9=Till I Get It Right
TTITLE10=Kids(Say The Darnest Things)
TTITLE11='Til I Can Make It On My Own
TTITLE12=You and Me
TTITLE13=Starting Over
TTITLE14=Cowboys Dont Shoot Straight(Like They Used To)
TTITLE15=Crying In The Rain
EXTD=
EXTT0=
EXTT1=
EXTT2=
EXTT3=
EXTT4=
EXTT5=
EXTT6=
EXTT7=
EXTT8=
EXTT9=
EXTT10=
EXTT11=
EXTT12=
EXTT13=
EXTT14=
EXTT15=
PLAYORDER=
